<?xml version="1.0" encoding="UTF-8" standalone="no"?>
<!-- Created with Inkscape (http://www.inkscape.org/) -->

<svg
   xmlns:svg="http://www.w3.org/2000/svg"
   xmlns="http://www.w3.org/2000/svg"
   version="1.1"
   width="1378.7604"
   height="612.81635"
   id="svg2927">
  <defs
     id="defs2931" />
  <path
     d="m 162.18457,611.80503 c -0.66277,-0.66277 -1.20503,-2.18378 -1.20503,-3.38003 0,-1.19625 -0.28125,-3.58125 -0.625,-5.3 -0.70601,-3.53004 -1.68942,-3.69489 -14.70766,-2.46557 -7.26964,0.68648 -6.72482,0.25479 -9.26427,7.34057 -0.86139,2.40353 -2.70735,-1.65154 -2.01236,-4.4206 0.43983,-1.75244 6.9e-4,-2.53566 -1.90978,-3.40613 -3.12662,-1.42458 -3.19048,-3.89286 -0.13673,-5.28424 1.71914,-0.78329 2.22706,-1.68096 1.90485,-3.3665 -0.24166,-1.26413 0.11268,-3.32994 0.78742,-4.59069 1.18164,-2.20793 1.27715,-2.22342 2.59516,-0.42093 0.7526,1.02924 1.36836,3.13534 1.36836,4.68022 0,1.83011 0.52268,2.80887 1.5,2.80887 1.1057,0 1.5,-1.15478 1.5,-4.39301 0,-2.98241 -0.48165,-4.57784 -1.5,-4.96862 -0.825,-0.31658 -1.5,-1.27885 -1.5,-2.13837 0,-0.85952 0.675,-1.82179 1.5,-2.13837 2.69674,-1.03484 1.57844,-3.02155 -2.36602,-4.20334 -2.69304,-0.80686 -15.51201,-1.09723 -42.249995,-0.95705 -21.11119,0.11069 -34.89648,0.35462 -30.63398,0.54207 l 7.75,0.34082 -0.0174,3.70793 c -0.0287,6.13735 -2.76944,17.16945 -5.35901,21.57151 -3.8536,6.55082 -6.91739,8.86853 -12.34099,9.33575 -6.170411,0.53157 -10.524491,-2.08532 -13.434091,-8.07415 l -2.13482,-4.39412 2.74458,-11.06298 2.74458,-11.06299 4.14856,-0.37783 c 2.2817,-0.20781 -5.24834,-0.45645 -16.733419,-0.55254 C 8.0254545,574.96913 6.8882245,574.60065 2.3786445,565.3834 -0.19718547,560.1186 -0.29097547,559.38907 0.29600453,549.18515 1.3088145,531.57869 5.3316545,515.4424 9.5890945,511.90904 c 1.1284605,-0.93654 1.3904005,-6.59418 1.3904005,-30.03148 0,-18.58504 0.35642,-28.87756 1,-28.87756 0.62857,0 1,6.5 1,17.5 0,9.625 0.4,17.5 0.88889,17.5 0.48889,0 0.82639,0.5625 0.75,1.25 -0.32238,2.90139 4.77029,16.75 6.15961,16.75 1.09662,0 1.17705,0.32453 0.33262,1.34201 -1.32112,1.59185 -0.50464,2.65799 2.03555,2.65799 2.1133,0 2.3568,-1.07652 0.63333,-2.8 -0.93333,-0.93333 -0.82411,-1.2 0.49153,-1.2 0.93033,0 2.25358,0.9 2.94054,2 0.96851,1.55083 2.33203,2 6.07133,2 4.426949,0 4.796669,-0.18447 4.509459,-2.25 -0.2769,-1.99138 0.17564,-2.28534 3.93714,-2.5575 2.89371,-0.20936 4.25,-0.76784 4.25,-1.75 0,-0.79337 0.9,-1.4425 2,-1.4425 1.11111,0 2,0.66667 2,1.5 0,0.825 0.45,1.5 1,1.5 0.55,0 1,-0.675 1,-1.5 0,-0.83333 0.88889,-1.5 2,-1.5 1.100001,0 2.000001,0.62686 2.000001,1.39301 0,0.76616 0.70352,1.66298 1.56338,1.99294 0.85986,0.32996 1.2833,1.0531 0.94098,1.60699 -0.37698,0.60997 0.87952,0.99853 3.18662,0.98542 3.2885,-0.0187 4.014,-0.45575 5.30902,-3.19827 0.825,-1.74714 2.0625,-3.3499 2.75,-3.56169 1.48857,-0.45856 1.71257,3.37768 0.25,4.2816 -2.48706,1.53708 -0.5074,2.5 5.13976,2.5 4.66253,0 6.46703,-0.42105 7.5,-1.75 1.28626,-1.65482 1.44608,-1.64122 2.93858,0.25 1.50998,1.91337 1.56412,1.8484 1.25,-1.5 l -0.32834,-3.5 6,0 c 5.95668,0 5.99768,0.0199 5.67845,2.74988 -0.39205,3.35278 1.79683,5.75012 5.250115,5.75012 l 2.57143,0 0,-12.86514 c 0,-11.50112 0.21974,-13.1445 2.07258,-15.5 1.13992,-1.44917 2.60242,-2.62797 3.25,-2.61955 0.74298,0.01 0.80844,0.2864 0.17742,0.75 -1.48023,1.08751 -1.77882,3.44448 -2.21505,17.48469 l -0.39614,12.75 15.09888,0 15.09887,0 -0.29328,-3.75 c -0.29085,-3.71891 -0.26219,-3.75 3.45738,-3.75 2.06286,0 3.75037,-0.3375 3.75001,-0.75 -3.6e-4,-0.4125 -4.27567,-0.75 -9.50067,-0.75 -5.66667,0 -9.5,-0.40351 -9.5,-1 0,-0.5996 3.98033,-1 9.94098,-1 8.98283,0 13.14935,-0.99147 9.81526,-2.33564 -0.69093,-0.27856 0.68283,-0.54199 3.05279,-0.58541 2.36996,-0.0434 4.06252,0.31989 3.76124,0.80736 -0.66239,1.07177 2.76095,2.08138 7.12072,2.10004 3.3225,0.0142 5.24593,-1.44283 3.06525,-2.32199 -0.69093,-0.27856 0.73127,-0.54199 3.16044,-0.58541 2.42916,-0.0434 4.09031,0.24741 3.69143,0.64628 -0.39888,0.39888 0.76362,1.22653 2.58333,1.83922 4.26372,1.43558 4.2289,3.56993 -0.0764,4.68556 -3.87251,1.00346 -6.115,2.90255 -6.115,5.17856 0,1.3723 2.35909,1.57143 18.61663,1.57143 18.1243,0 18.6028,-0.0529 18.09362,-2 -0.47454,-1.81466 -0.0307,-2 4.78975,-2 4.82043,0 5.26429,0.18534 4.78975,2 -0.51125,1.95502 -0.0307,2 21.36626,2 l 21.88927,0 1.11654,-4.75 c 0.61409,-2.6125 0.95533,-4.92358 0.7583,-5.13572 -0.19703,-0.21215 -17.02216,-0.61443 -37.38918,-0.89396 l -37.03097,-0.50824 0,-3.35604 0,-3.35604 23.75,-0.003 c 13.0625,-0.002 30.82569,-0.2968 39.47376,-0.65548 l 15.72376,-0.65214 1.09299,-3.3118 C 265.1852,483.84669 270.158,479 272.61524,479 c 0.81526,0 1.20418,0.45 0.86426,1 -0.36623,0.59257 0.78213,1 2.81854,1 1.89011,0 3.97457,0.64825 4.63213,1.44056 1.67337,2.01629 4.04933,0.81489 4.04933,-2.04755 0,-2.06408 0.47678,-2.39301 3.46862,-2.39301 2.67237,0 3.33648,-0.34434 2.89301,-1.5 -0.36449,-0.94984 0.0138,-1.5 1.03138,-1.5 0.88385,0 1.60699,-0.45 1.60699,-1 0,-0.59649 -3.83333,-1 -9.5,-1 -5.66667,0 -9.5,-0.40351 -9.5,-1 0,-0.5996 3.98033,-1 9.94098,-1 8.98282,0 13.14934,-0.99147 9.81525,-2.33564 -0.69093,-0.27856 0.73127,-0.54199 3.16044,-0.58541 2.42916,-0.0434 4.09031,0.24741 3.69143,0.64628 -0.39888,0.39888 0.76362,1.22653 2.58333,1.83922 4.40144,1.48195 4.19987,3.64973 -0.44143,4.74737 -5.1185,1.2105 -4.72348,2.68818 0.71862,2.68818 3.56125,0 4.35173,0.30458 3.89301,1.5 -0.68813,1.79323 -1.94008,1.79323 14.63837,0 7.425,-0.80313 14.0625,-1.46919 14.75,-1.48012 0.94533,-0.015 1.25,3.63618 1.25,14.98012 l 0,15 -4.84719,0 c -4.03852,0 -5.02822,-0.37537 -5.93232,-2.25 -1.02352,-2.12225 -1.08897,-2.06547 -1.15281,1 l -0.0677,3.25 15,0 c 9.33333,0 15,-0.37778 15,-1 0,-0.55 1.09083,-1 2.42406,-1 l 2.42406,0 0.0151,-31.13912 c 0.0153,-31.68378 0.47813,-35.78819 3.56438,-31.61088 0.71111,0.9625 1.58082,1.75 1.93268,1.75 0.35183,0 0.63972,-7.1003 0.63972,-15.77844 l 0,-15.77844 4.55853,-10.47156 c 2.50719,-5.75936 5.374,-12.27156 6.37069,-14.47156 10.58562,-23.36571 28.17224,-65.12483 29.18888,-69.30847 1.0398,-4.27898 1.04533,-5.70018 0.0285,-7.32836 -0.85909,-1.37562 -0.94025,-2.4069 -0.25447,-3.23322 0.55384,-0.66733 1.14217,-4.34457 1.30741,-8.17164 0.23251,-5.38497 0.6396,-6.95831 1.80044,-6.95831 1.23077,0 1.58974,2.33333 2,13 0.275,7.15 0.79082,13.45 1.14626,14 0.35544,0.55 1.38734,18.325 2.29312,39.5 0.90578,21.175 2.0597,41.92712 2.56429,46.11583 l 0.91742,7.61584 -8.54592,16.21545 c -4.70026,8.9185 -8.29512,16.46627 -7.98857,16.77281 0.30655,0.30655 9.63794,1.16585 20.73643,1.90957 11.09848,0.74371 20.67359,1.44774 21.27802,1.56452 0.60442,0.11678 2.57467,-0.5725 4.37832,-1.53172 5.75851,-3.06249 7.35197,0.14763 1.72212,3.46932 -1.92418,1.1353 -3.25081,2.46497 -2.94806,2.95482 0.30274,0.48986 -0.0899,0.64493 -0.87255,0.3446 -0.78265,-0.30034 -2.13995,0.17089 -3.01623,1.04716 -0.87627,0.87628 -1.94679,1.60854 -2.37894,1.62726 -2.01465,0.0873 -12.0921,6.39879 -11.56877,7.24555 0.32564,0.5269 0.15147,0.68569 -0.38706,0.35287 -0.53852,-0.33283 -7.92055,3.35933 -16.40451,8.20479 l -15.42537,8.80992 -0.30226,5.14071 c -0.2714,4.61586 -0.0927,5.1407 1.75,5.1407 1.85919,0 2.05226,0.61149 2.05226,6.5 l 0,6.5 5.5,0 c 4.22222,0 5.5,-0.34848 5.5,-1.5 0,-1.22807 1.72222,-1.5 9.5,-1.5 7.77778,0 9.5,0.27193 9.5,1.5 0,2.11895 2.69589,1.86123 5.23037,-0.5 2.35215,-2.19135 5.75822,-2.61141 7.45075,-0.91888 0.77483,0.77483 1.19957,0.0666 1.4992,-2.5 l 0.4181,-3.58112 -19.7992,0 -19.7992,0 0,-3.5 0,-3.5 23.75,-0.003 c 13.0625,-0.002 30.82569,-0.2968 39.47376,-0.65548 l 15.72376,-0.65214 1.09299,-3.3118 C 488.18518,483.84669 493.15798,479 495.61522,479 c 0.81526,0 1.20418,0.45 0.86426,1 -0.36623,0.59257 0.78213,1 2.81854,1 1.89011,0 3.97457,0.64825 4.63213,1.44056 1.67337,2.01629 4.04933,0.81489 4.04933,-2.04755 0,-2.06408 0.47678,-2.39301 3.46862,-2.39301 2.67237,0 3.33648,-0.34434 2.89301,-1.5 -0.36449,-0.94984 0.0138,-1.5 1.03138,-1.5 0.88385,0 1.60699,-0.45 1.60699,-1 0,-0.59649 -3.83333,-1 -9.5,-1 -5.66667,0 -9.5,-0.40351 -9.5,-1 0,-0.5996 3.98033,-1 9.94098,-1 8.98282,0 13.14934,-0.99147 9.81525,-2.33564 -0.69093,-0.27856 0.73127,-0.54199 3.16044,-0.58541 2.42916,-0.0434 4.09031,0.24741 3.69143,0.64628 -0.39888,0.39888 0.76362,1.22653 2.58333,1.83922 4.40144,1.48195 4.19987,3.64973 -0.44143,4.74737 -5.1185,1.2105 -4.72348,2.68818 0.71862,2.68818 3.7466,0 4.36603,0.26731 3.83376,1.65439 -0.54569,1.42205 -0.0848,1.56958 3.28139,1.05051 2.15392,-0.33213 7.86604,-0.91449 12.69358,-1.29413 4.82754,-0.37963 8.96688,-0.99693 9.19855,-1.37177 0.49593,-0.80244 -35.21176,-21.37233 -37.10067,-21.37233 -0.70799,0 -1.11014,-0.28658 -0.89367,-0.63683 0.37854,-0.6125 -11.68353,-7.69133 -12.26727,-7.19926 -0.15715,0.13247 -1.00267,-0.4761 -1.87894,-1.35238 -0.87628,-0.87627 -2.23358,-1.3475 -3.01623,-1.04716 -0.78265,0.30033 -1.17529,0.14526 -0.87255,-0.3446 0.30275,-0.48985 -1.02388,-1.81952 -2.94806,-2.95482 -5.63067,-3.32217 -4.03562,-6.53325 1.72212,-3.46688 1.80365,0.96055 3.57074,1.66932 3.92687,1.57503 0.35612,-0.0943 18.31039,-1.31711 39.89837,-2.71739 34.20441,-2.21863 39.42466,-2.76944 40.60251,-4.28417 1.27156,-1.63526 1.43016,-1.63733 2.67758,-0.0351 0.84311,1.08293 1.18158,3.51428 0.92947,6.67677 -0.3845,4.82313 -0.31113,4.98344 2.42404,5.29688 2.33738,0.26786 2.87231,0.85448 3.1228,3.42457 0.25531,2.61946 0.65319,3.03425 2.56082,2.66958 1.29341,-0.24725 2.81904,0.24361 3.57017,1.14867 2.18912,2.63774 3.06674,1.80223 3.06674,-2.91958 0,-3.36272 0.38475,-4.5 1.52237,-4.5 1.33625,0 1.51385,-4.40111 1.45274,-36 -0.0528,-27.32184 -0.35955,-36.00762 -1.27236,-36.0316 -0.66151,-0.0174 -0.0495,-1.04835 1.36007,-2.29103 3.07873,-2.71426 4.26859,-5.40023 2.63367,-5.94521 -0.66354,-0.22118 -0.085,-1.02496 1.30617,-1.81461 1.85239,-1.05146 7.46875,-1.50186 21.74734,-1.74401 10.5875,-0.17956 19.25,-0.69391 19.25,-1.14301 0,-1.17993 -2.99346,-2.15261 -4.24475,-1.37927 -0.59199,0.36587 -0.77448,0.18888 -0.41125,-0.39885 0.35917,-0.58114 -0.92131,-1.98549 -2.84549,-3.12079 -1.92418,-1.13529 -3.49851,-2.50279 -3.49851,-3.03888 0,-2.06146 2.20012,-2.17222 5.41935,-0.27282 2.70217,1.59432 3.61838,1.73619 4.71709,0.73042 0.74996,-0.68651 30.16356,-16.66736 65.36356,-35.51301 35.2,-18.84565 64.32176,-34.55789 64.71502,-34.91609 0.39327,-0.35821 0.22656,-4.95143 -0.37046,-10.20716 l -1.08548,-9.55588 -8.37954,-5.25941 c -4.60875,-2.89268 -8.37954,-5.54945 -8.37954,-5.90393 0,-1.46607 18.18516,-94.57002 18.85728,-96.54503 0.79466,-2.33511 0.79236,-2.46383 -0.86766,-48.52924 -0.80356,-22.29887 -0.82099,-31.68922 -0.0602,-32.45 0.72199,-0.722 1.07058,-13.05307 1.07058,-37.87059 0,-23.86667 0.35145,-36.8 1,-36.8 0.65165,0 1,15.46112 1,44.38337 0,43.54236 0.0379,44.39328 2,44.90638 1.94382,0.50832 2,1.36402 2,30.46008 0,26.68673 0.20364,30.52407 1.87559,35.34362 2.00873,5.79037 28.91281,71.73429 29.94871,73.40655 0.3407,0.55 0.68833,1.45 0.7725,2 0.0842,0.55 2.23903,5.95 4.78859,12 l 4.63555,11 -3.68349,59.71313 -3.68349,59.71313 5.31853,29.78687 c 2.92519,16.38278 5.49004,29.98635 5.69965,30.23017 0.20962,0.24381 0.34401,-12.91869 0.29865,-29.25 -0.0619,-22.28244 -0.38052,-29.70119 -1.27663,-29.7249 -0.65679,-0.0174 -0.0409,-1.04835 1.36866,-2.29103 3.07873,-2.71426 4.26859,-5.40023 2.63367,-5.94521 -0.66354,-0.22118 -0.085,-1.02496 1.30617,-1.81461 1.89986,-1.07841 6.80377,-1.41755 20.49734,-1.41755 13.69357,0 18.59748,0.33914 20.49734,1.41755 1.39114,0.78965 1.96971,1.59343 1.30617,1.81461 -1.63492,0.54498 -0.44506,3.23095 2.63367,5.94521 1.40955,1.24268 2.02775,2.27365 1.37378,2.29103 -0.8856,0.0235 -1.21173,6.77104 -1.27794,26.44019 l -0.0889,26.40859 4.27795,-0.54617 c 5.10124,-0.6513 5.38604,-0.83337 3.97083,-2.53859 -0.60066,-0.72375 -1.2364,-4.10963 -1.41277,-7.52417 L 887.43895,410 l 3.73446,0 3.73446,0 -0.0774,-15.75 c -0.0564,-11.47349 -0.46097,-16.49669 -1.48988,-18.5 l -1.41247,-2.75 27.05136,0 27.05136,0 -1.43803,2.78085 c -1.13998,2.20448 -1.40438,7.38603 -1.27568,24.99982 l 0.16235,22.21897 -3.75,1.8e-4 -3.75,1.8e-4 0,6.95455 c 0,5.99713 0.32862,7.28316 2.3871,9.34164 1.96806,1.96806 2.30278,3.11708 1.90677,6.54546 L 939.79301,450 l 9.59324,0 c 5.72882,0 9.59323,0.40283 9.59323,1 0,0.59649 -3.83333,1 -9.5,1 -5.66667,0 -9.5,0.40351 -9.5,1 0,0.55 0.675,1 1.5,1 0.825,0 1.5,0.45 1.5,1 0,0.55 0.675,1 1.5,1 1.27273,0 1.5,2.5 1.5,16.5 0,14 0.22727,16.5 1.5,16.5 0.93333,0 1.5,-0.94444 1.5,-2.5 0,-2.19048 0.43333,-2.5 3.5,-2.5 l 3.5,0 0,-14 c 0,-10.54394 0.30858,-13.99509 1.25,-13.98012 0.6875,0.0109 7.325,0.67699 14.75,1.48012 16.57845,1.79323 15.3265,1.79323 14.63837,0 -0.45872,-1.19542 0.33176,-1.5 3.89301,-1.5 5.44208,0 5.83708,-1.47768 0.71862,-2.68818 -4.6413,-1.09764 -4.84287,-3.26542 -0.44143,-4.74737 1.81971,-0.61269 2.98221,-1.44034 2.58333,-1.83922 -0.39888,-0.39887 1.26227,-0.6897 3.69146,-0.64628 2.4291,0.0434 3.85126,0.30685 3.16036,0.58541 -3.33406,1.34417 0.8324,2.33564 9.8152,2.33564 5.9607,0 9.941,0.4004 9.941,1 0,0.59649 -3.8333,1 -9.5,1 -5.6667,0 -9.5,0.40351 -9.5,1 0,0.55 0.7231,1 1.607,1 1.0176,0 1.3959,0.55016 1.0314,1.5 -0.4435,1.15566 0.2206,1.5 2.893,1.5 2.9918,0 3.4686,0.32893 3.4686,2.39301 0,2.86244 2.376,4.06384 4.0493,2.04755 0.6576,-0.79231 2.742,-1.44056 4.6322,-1.44056 2.0364,0 3.1847,-0.40743 2.8185,-1 -0.3399,-0.55 0.049,-1 0.8643,-1 2.4572,0 7.43,4.84669 8.5952,8.37725 l 1.093,3.3118 15.7237,0.65214 c 8.6481,0.35868 26.4113,0.65365 39.4738,0.65548 l 23.75,0.003 0,3.35604 0,3.35604 -37.0309,0.50824 c -20.3671,0.27953 -37.1922,0.68181 -37.3892,0.89396 -0.8564,0.92205 1.9975,9.88572 3.1475,9.88572 0.6999,0 1.2726,-0.45 1.2726,-1 0,-0.55 2.475,-1 5.5,-1 5.2,0 5.5,-0.13636 5.5,-2.5 0,-2.44444 0.1667,-2.5 7.5,-2.5 6,0 7.5,0.3 7.5,1.5 0,0.83333 0.8889,1.5 2,1.5 1.3333,0 2,-0.66667 2,-2 0,-1.33333 0.6667,-2 2,-2 1.1111,0 2,0.66667 2,1.5 0,0.825 0.45,1.5 1,1.5 0.55,0 1,-0.675 1,-1.5 0,-1.66902 3.6376,-2.08718 4.1734,-0.47975 0.2311,0.69329 2.0723,0.69175 5.7452,-0.005 2.9728,-0.56379 5.5905,-0.83972 5.817,-0.61318 0.2265,0.22653 -0.3079,1.8037 -1.1875,3.50481 -1.584,3.06302 -1.575,3.09293 0.9262,3.09293 2.0274,0 2.5257,-0.49322 2.5257,-2.5 0,-2.44444 0.1667,-2.5 7.5,-2.5 7.3333,0 7.5,0.0556 7.5,2.5 0,1.375 0.45,2.5 1,2.5 0.55,0 1,-1.125 1,-2.5 0,-2.44444 0.1667,-2.5 7.5,-2.5 7.3889,0 7.5,0.0381 7.5,2.57143 0,2.28571 0.1667,2.40476 1.5,1.07143 0.825,-0.825 1.5,-2.43215 1.5,-3.57143 0,-2.03101 0.4195,-2.07143 21.5,-2.07143 21.0805,0 21.5,0.0404 21.5,2.07143 0,3.41297 2.4381,4.92857 7.9286,4.92857 2.7893,0 5.0714,-0.41936 5.0714,-0.93191 0,-0.51254 1.4132,-1.9382 3.1405,-3.16812 2.8921,-2.05935 3.2369,-2.10428 4.3602,-0.56809 0.6709,0.91746 1.7327,1.66812 2.3595,1.66812 1.4822,0 1.4657,-2.27413 -0.027,-3.76722 -1.8326,-1.83262 2.2914,-2.89064 9.4172,-2.41597 2.3482,0.15642 2.75,0.62154 2.75,3.18319 0,1.65 0.45,3 1,3 0.55,0 1,-1.35 1,-3 0,-2.33333 0.4444,-3 2,-3 1.5822,0 2,0.66667 2,3.19113 0,3.03262 0.074,3.09471 1.5,1.25 1.4205,-1.83823 1.5721,-1.84836 2.8602,-0.19113 0.7482,0.9625 1.8732,1.75 2.5,1.75 1.4822,0 1.4657,-2.27413 -0.027,-3.76722 -0.8896,-0.88962 -0.7113,-1.34528 0.75,-1.91593 2.4439,-0.9544 8.3613,-0.9659 10.7798,-0.0209 1.5643,0.6112 1.6547,0.97833 0.5643,2.29215 -1.0715,1.29113 -1.0475,1.72306 0.1374,2.47285 0.7896,0.49966 1.7429,0.91537 2.1183,0.92379 1.288,0.0289 1.9827,-4.08054 0.9087,-5.37469 -1.6259,-1.95902 -0.2768,-2.61 5.4087,-2.61 5.6855,0 7.0346,0.65098 5.4087,2.61 -1.4494,1.74638 -0.129,6.01025 1.3906,4.49066 0.6046,-0.60522 2.6749,-1.10052 4.5999,-1.10052 2.7222,0 3.2333,0.26667 2.3,1.2 -0.66,0.66 -1.2,1.56 -1.2,2 0,0.44 8.0625,0.8 17.9167,0.8 13.4423,0 18.0217,-0.31217 18.3373,-1.25 0.328,-0.97451 0.7872,-0.94752 2.0834,0.12244 1.3729,1.13327 1.9373,1.14448 3.2388,0.0643 1.2984,-1.0776 1.7189,-1.07737 2.3855,10e-4 1.1099,1.79586 13.8328,1.01242 15.0305,-0.92554 0.7073,-1.14431 1.1283,-1.15743 2.4316,-0.0758 1.2983,1.07752 1.8541,1.07752 3.1524,0 1.2736,-1.05698 1.7276,-1.06322 2.3646,-0.0325 0.5898,0.95433 1.4408,0.62327 3.3783,-1.3143 1.4245,-1.42447 3.3552,-2.58994 4.2904,-2.58994 1.5841,0 1.5872,0.12521 0.045,1.82874 -2.3898,2.64073 -2.0812,3.17126 1.845,3.17126 3.9262,0 4.2348,-0.53053 1.845,-3.17126 -1.5417,-1.70353 -1.5386,-1.82874 0.045,-1.82874 0.9352,0 2.8254,1.125 4.2004,2.5 3.0224,3.02244 4.5257,3.14413 6.177,0.5 0.687,-1.1 2.0102,-2 2.9406,-2 1.3156,0 1.4248,0.26667 0.4915,1.2 -1.8641,1.86412 -1.4296,2.8 1.3,2.8 2.6223,0 3.3228,-1.37345 1.329,-2.60566 -0.7898,-0.48815 -0.5287,-0.9613 0.8023,-1.45366 1.2699,-0.46975 3.1921,-3.70846 5.3922,-9.08532 l 3.4189,-8.35536 0.3487,-21.75 c 0.2003,-12.4933 0.7446,-21.75 1.2788,-21.75 0.5544,0 0.9301,13.11012 0.9301,32.45121 0,24.96463 -0.331,33.72211 -1.4349,37.96003 -2.3909,9.1793 -3.9804,32.27246 -2.6589,38.63099 1.5792,7.59907 5.0293,14.60624 10.0449,20.40124 6.6093,7.63643 8.8334,11.51643 10.6278,18.54025 5.0934,19.93642 -6.0578,34.76981 -32.0789,42.67164 -5.7711,1.75252 -28.4325,1.83218 -594.04489,2.08836 -457.69272,0.20729 -588.3121,-7.9e-4 -589.25,-0.93869 z M 573.80276,466 l -0.33973,-11 2.63745,0 c 2.50733,0 2.69029,-0.35602 3.70852,-7.2164 0.58908,-3.96903 0.93882,-7.34866 0.77718,-7.5103 -0.38897,-0.38897 -71.92362,3.71034 -72.35988,4.1466 -0.50769,0.5077 11.06103,6.89762 12.50324,6.90609 0.6875,0.004 1.03471,0.22264 0.77157,0.48577 -0.26313,0.26314 9.07437,6.00444 20.75,12.75845 19.68332,11.38622 21.61648,12.28547 26.5599,12.35491 l 5.33147,0.0749 -0.33972,-11 z m 184.17678,-4.5 c 0,-2.11111 0.46667,-2.5 3,-2.5 2.33333,0 3,0.44444 3,2 0,2.29804 0.37161,2.40667 3.14871,0.92042 1.93629,-1.03628 1.94616,-1.15811 0.24601,-3.03675 -0.97416,-1.07644 -1.87465,-2.72813 -2.00107,-3.67042 -0.12643,-0.94229 -0.51805,-2.62575 -0.87028,-3.74104 -0.54533,-1.72673 -7.4e-4,-2.19863 3.66811,-3.17855 6.09418,-1.62769 13.22068,0.21665 12.28494,3.17934 -0.35211,1.11485 -0.74364,2.79796 -0.87007,3.74025 -0.12642,0.94229 -1.02996,2.59735 -2.00785,3.67791 -1.7219,1.90268 -1.68209,2.01425 1.26209,3.53675 4.13704,2.13934 4.17846,2.11301 3.81926,-2.42791 -0.31061,-3.92661 -0.25553,-4 3.00187,-4 l 3.31828,0 0,-8.36414 0,-8.36414 -4.75,-1.85051 c -2.6125,-1.01777 -5.12095,-1.74276 -5.57433,-1.61108 -0.45338,0.13168 -0.61439,-0.10923 -0.35779,-0.53535 0.3906,-0.64868 -26.60943,-16.60754 -53.46447,-31.60115 l -6.85341,-3.82637 0,2.59542 c 0,2.26911 0.31432,2.51654 2.5,1.96796 1.89052,-0.47449 2.5,-0.23534 2.5,0.98095 0,1.04897 -0.86955,1.60841 -2.5,1.60841 -1.83333,0 -2.5,0.53333 -2.5,2 0,1.1 0.34937,2 0.77638,2 1.29099,0 0.24724,11.31257 -1.19604,12.96319 -1.83695,2.10083 -2.85309,5.7502 -1.78493,6.41037 0.48222,0.29803 0.67934,2.8109 0.43805,5.58415 -0.36625,4.20939 -0.16424,5.04229 1.22293,5.04229 0.9139,0 1.38353,0.45 1.04361,1 -0.80636,1.30472 2.15689,1.26693 8.57419,-0.10933 3.23091,-0.69291 5.40785,-0.75297 5.79922,-0.16 0.39156,0.59324 5.12774,0.46851 12.62659,-0.33253 6.6,-0.70502 12.4875,-1.30802 13.08333,-1.34 1.44737,-0.0777 1.49764,2.09695 0.24137,10.44186 -1.23131,8.17919 -2.05816,9.5 -5.94714,9.5 -2.21089,0 -2.87756,0.46336 -2.87756,2 0,1.66667 0.66667,2 4,2 3.6,0 4,-0.25 4,-2.5 z M 380.34941,446.75 c 1.47423,-1.50184 6.07791,-23.14073 5.33505,-25.07658 -0.42973,-1.11987 -11.59447,-4.24442 -12.23258,-3.4234 -0.10686,0.13749 -0.47203,6.63138 -0.81148,14.43086 -0.56154,12.90248 -0.46139,14.22173 1.11098,14.634 3.28075,0.8602 5.37517,0.68089 6.59803,-0.56488 z m 307.43683,-5.9846 c 1.7638,-2.38295 3.55031,-2.2386 2.90355,0.2346 -0.81803,3.12817 1.63761,2.37032 3.11192,-0.96039 0.72072,-1.62822 1.09516,-4.32613 0.83209,-5.99535 -0.26308,-1.66923 -0.0496,-3.29993 0.47439,-3.62377 1.13256,-0.69996 0.18083,-4.29601 -1.70899,-6.4573 C 691.95592,422.31257 690.91217,411 692.20316,411 c 0.42701,0 0.77638,-0.9 0.77638,-2 0,-1.46667 -0.66667,-2 -2.5,-2 -1.63045,0 -2.5,-0.55944 -2.5,-1.60841 0,-1.23605 0.60672,-1.45613 2.62074,-0.95064 2.45385,0.61588 2.59252,0.46544 2.1775,-2.36224 l -0.44324,-3.02 11.78868,-0.27936 L 715.9119,398.5 690.81836,384.08333 c -13.80146,-7.92916 -25.71124,-14.41666 -26.46619,-14.41666 -0.75494,0 -1.14847,-0.22416 -0.8745,-0.49814 0.78421,-0.78421 -4.86168,-3.9222 -6.18499,-3.43763 -1.62289,0.59429 -0.46149,3.22621 2.62404,5.94647 1.40955,1.24268 2.02292,2.27365 1.36304,2.29103 -0.90701,0.0239 -1.2178,8.20594 -1.27367,33.5316 l -0.0739,33.5 3.58269,0 c 1.97047,0 3.37344,-0.3375 3.11771,-0.75 -0.25574,-0.4125 1.69696,-0.59715 4.33934,-0.41034 3.80323,0.26888 4.75162,0.68562 4.55141,2 -0.57202,3.75536 9.3302,2.88789 12.26289,-1.07426 z M 788.94353,400.25 c 0.047,-34.03134 -0.0351,-35.50347 -3.97453,-71.18322 -2.21241,-20.03827 -4.12761,-36.51724 -4.25601,-36.61993 -0.1284,-0.10269 -25.65845,16.17569 -56.73345,36.17419 -31.075,19.9985 -56.94495,36.36497 -57.48879,36.36994 -0.54383,0.005 11.13514,6.95405 25.95327,15.44241 14.81813,8.48837 27.30058,15.21181 27.73879,14.94098 0.4382,-0.27082 0.79673,-0.0274 0.79673,0.54093 0,1.20002 5.44318,4.22755 6.37322,3.54482 0.34473,-0.25307 0.41171,-0.17005 0.14885,0.18447 -0.72574,0.97884 52.68722,31.33623 53.91143,30.6407 0.58657,-0.33327 0.7119,-0.21669 0.2785,0.25905 -0.68385,0.75067 4.53659,4.29774 6.49597,4.41374 0.38939,0.0231 0.7296,-15.59558 0.75602,-34.70808 z m 26.09572,17.5 c 0.0328,-0.1375 0.4623,-7 0.95435,-15.25 l 0.89463,-15 -8.70434,-48.87797 -8.70435,-48.87797 -0.32113,45.37797 c -0.26196,37.01656 -0.003,48.83287 1.4063,64.12797 l 1.72744,18.75 6.34369,0 c 3.48904,0 6.37057,-0.1125 6.40341,-0.25 z m -406.1231,-59 c -0.0349,-18.8375 -0.42995,-33.35 -0.87799,-32.25 -0.44803,1.1 -6.31832,16.175 -13.04508,33.5 -6.72677,17.325 -12.43323,31.8375 -12.68103,32.25 -0.2478,0.4125 5.65101,0.75 13.10847,0.75 l 13.55902,0 -0.0634,-34.25 z m 411.64082,-50.94701 c 1.29255,-26.01664 2.36639,-48.71755 2.38633,-50.44645 l 0.0362,-3.14346 -9.75,2.46793 c -9.47183,2.39751 -14.25,5.07774 -14.25,7.9933 0,1.01494 2.40948,1.32569 10.279,1.32569 l 10.279,0 -0.18751,3.75 c -0.10314,2.0625 -0.22869,4.53184 -0.27901,5.48743 -0.0583,1.10794 -2.62763,3.01461 -7.09148,5.26257 -3.85,1.93883 -7.01046,3.85699 -7.02324,4.26257 -0.0566,1.79664 12.5616,71.02643 12.88691,70.70393 0.20003,-0.19828 1.42122,-21.64686 2.71376,-47.66351 z M 811.04504,221.25 c -1.5863,-4.2625 -7.42251,-19.675 -12.96935,-34.25 -5.54683,-14.575 -10.08763,-27.31406 -10.09065,-28.30902 -0.003,-0.99496 -0.4555,-1.5309 -1.0055,-1.19098 -0.63623,0.39321 -1,13.51038 -1,36.05902 l 0,35.44098 13.97485,0 13.97484,0 -2.88419,-7.75 z"
     id="path3039"
     style="fill:#000000" />
</svg>
